<svg xmlns="http://www.w3.org/2000/svg" height="512" width="512" viewBox="0 0 33 33" role="img" id="qr-dVBQe4"><path fill="#FFFFFF" d="M0,0 h33v33H0z" shape-rendering="crispEdges"/><path fill="#000000" d="M0 0h7v1H0zM10 0h2v1H10zM13 0h2v1H13zM16 0h1v1H16zM18 0h5v1H18zM24 0h1v1H24zM26,0 h7v1H26zM0 1h1v1H0zM6 1h1v1H6zM9 1h1v1H9zM11 1h2v1H11zM16 1h4v1H16zM21 1h1v1H21zM26 1h1v1H26zM32,1 h1v1H32zM0 2h1v1H0zM2 2h3v1H2zM6 2h1v1H6zM8 2h2v1H8zM12 2h4v1H12zM17 2h1v1H17zM19 2h1v1H19zM21 2h1v1H21zM23 2h1v1H23zM26 2h1v1H26zM28 2h3v1H28zM32,2 h1v1H32zM0 3h1v1H0zM2 3h3v1H2zM6 3h1v1H6zM8 3h2v1H8zM15 3h1v1H15zM17 3h3v1H17zM21 3h1v1H21zM23 3h1v1H23zM26 3h1v1H26zM28 3h3v1H28zM32,3 h1v1H32zM0 4h1v1H0zM2 4h3v1H2zM6 4h1v1H6zM9 4h2v1H9zM12 4h3v1H12zM17 4h2v1H17zM21 4h4v1H21zM26 4h1v1H26zM28 4h3v1H28zM32,4 h1v1H32zM0 5h1v1H0zM6 5h1v1H6zM9 5h2v1H9zM13 5h1v1H13zM15 5h1v1H15zM17 5h2v1H17zM21 5h1v1H21zM23 5h1v1H23zM26 5h1v1H26zM32,5 h1v1H32zM0 6h7v1H0zM8 6h1v1H8zM10 6h1v1H10zM12 6h1v1H12zM14 6h1v1H14zM16 6h1v1H16zM18 6h1v1H18zM20 6h1v1H20zM22 6h1v1H22zM24 6h1v1H24zM26,6 h7v1H26zM9 7h7v1H9zM17 7h2v1H17zM20 7h1v1H20zM24 7h1v1H24zM3 8h2v1H3zM6 8h2v1H6zM10 8h1v1H10zM12 8h4v1H12zM19 8h3v1H19zM29 8h2v1H29zM1 9h2v1H1zM7 9h1v1H7zM10 9h5v1H10zM16 9h1v1H16zM18 9h1v1H18zM21 9h2v1H21zM25 9h1v1H25zM27 9h2v1H27zM30 9h1v1H30zM1 10h1v1H1zM4 10h1v1H4zM6 10h4v1H6zM14 10h1v1H14zM16 10h2v1H16zM20 10h1v1H20zM22 10h4v1H22zM27 10h1v1H27zM31,10 h2v1H31zM4 11h2v1H4zM7 11h1v1H7zM9 11h1v1H9zM11 11h1v1H11zM13 11h1v1H13zM15 11h3v1H15zM21 11h3v1H21zM27,11 h6v1H27zM3 12h1v1H3zM5 12h2v1H5zM8 12h3v1H8zM12 12h1v1H12zM15 12h5v1H15zM21 12h1v1H21zM23 12h1v1H23zM26 12h3v1H26zM0 13h2v1H0zM4 13h1v1H4zM12 13h1v1H12zM16 13h2v1H16zM20 13h2v1H20zM23 13h1v1H23zM25 13h1v1H25zM27 13h5v1H27zM0 14h2v1H0zM4 14h3v1H4zM8 14h1v1H8zM10 14h1v1H10zM18 14h2v1H18zM25 14h1v1H25zM27 14h1v1H27zM29 14h2v1H29zM0 15h1v1H0zM3 15h3v1H3zM12 15h1v1H12zM16 15h5v1H16zM23 15h1v1H23zM26 15h2v1H26zM30 15h1v1H30zM32,15 h1v1H32zM1 16h1v1H1zM4 16h3v1H4zM8 16h2v1H8zM11 16h1v1H11zM13 16h2v1H13zM16 16h2v1H16zM19 16h2v1H19zM22 16h1v1H22zM24 16h1v1H24zM26 16h1v1H26zM28 16h1v1H28zM31 16h1v1H31zM0 17h2v1H0zM10 17h1v1H10zM12 17h1v1H12zM15 17h1v1H15zM18 17h1v1H18zM20 17h1v1H20zM22 17h1v1H22zM24 17h1v1H24zM26 17h1v1H26zM28 17h2v1H28zM32,17 h1v1H32zM0 18h1v1H0zM6 18h3v1H6zM10 18h2v1H10zM13 18h3v1H13zM17 18h5v1H17zM23 18h8v1H23zM32,18 h1v1H32zM0 19h3v1H0zM4 19h2v1H4zM10 19h1v1H10zM13 19h1v1H13zM17 19h1v1H17zM19 19h2v1H19zM23 19h2v1H23zM26 19h1v1H26zM29 19h2v1H29zM32,19 h1v1H32zM1 20h1v1H1zM5 20h3v1H5zM12 20h2v1H12zM16 20h1v1H16zM18 20h3v1H18zM22 20h4v1H22zM27 20h1v1H27zM29 20h1v1H29zM31 20h1v1H31zM0 21h1v1H0zM5 21h1v1H5zM7 21h3v1H7zM13 21h1v1H13zM17 21h1v1H17zM25 21h4v1H25zM30 21h2v1H30zM0 22h1v1H0zM3 22h1v1H3zM6 22h1v1H6zM8 22h1v1H8zM10 22h2v1H10zM15 22h1v1H15zM17 22h2v1H17zM24 22h1v1H24zM26 22h1v1H26zM32,22 h1v1H32zM0 23h1v1H0zM2 23h1v1H2zM9 23h1v1H9zM13 23h1v1H13zM18 23h2v1H18zM22 23h1v1H22zM28 23h1v1H28zM30 23h1v1H30zM32,23 h1v1H32zM0 24h3v1H0zM4 24h1v1H4zM6 24h2v1H6zM11 24h1v1H11zM13 24h2v1H13zM17 24h1v1H17zM19 24h1v1H19zM21 24h1v1H21zM24 24h6v1H24zM31 24h1v1H31zM8 25h1v1H8zM11 25h8v1H11zM22 25h1v1H22zM24 25h1v1H24zM28 25h1v1H28zM30 25h2v1H30zM0 26h7v1H0zM8 26h2v1H8zM12 26h3v1H12zM18 26h1v1H18zM20 26h5v1H20zM26 26h1v1H26zM28 26h1v1H28zM30 26h1v1H30zM0 27h1v1H0zM6 27h1v1H6zM9 27h1v1H9zM12 27h2v1H12zM15 27h1v1H15zM17 27h3v1H17zM23 27h2v1H23zM28 27h1v1H28zM30 27h1v1H30zM32,27 h1v1H32zM0 28h1v1H0zM2 28h3v1H2zM6 28h1v1H6zM8 28h2v1H8zM11 28h3v1H11zM17 28h3v1H17zM21 28h1v1H21zM23 28h6v1H23zM31 28h1v1H31zM0 29h1v1H0zM2 29h3v1H2zM6 29h1v1H6zM8 29h3v1H8zM13 29h1v1H13zM17 29h1v1H17zM20 29h2v1H20zM27 29h1v1H27zM30 29h2v1H30zM0 30h1v1H0zM2 30h3v1H2zM6 30h1v1H6zM9 30h3v1H9zM14 30h1v1H14zM16 30h1v1H16zM18 30h4v1H18zM28,30 h5v1H28zM0 31h1v1H0zM6 31h1v1H6zM10 31h1v1H10zM14 31h1v1H14zM16 31h1v1H16zM19 31h2v1H19zM25 31h1v1H25zM30,31 h3v1H30zM0 32h7v1H0zM10 32h2v1H10zM13 32h2v1H13zM17 32h3v1H17zM22 32h4v1H22zM28 32h1v1H28zM30 32h1v1H30z" shape-rendering="crispEdges"/></svg>